<?xml version="1.0" encoding="iso-8859-1"?>
<!-- Generator: Adobe Illustrator 19.1.0, SVG Export Plug-In . SVG Version: 6.00 Build 0)  -->
<svg version="1.1" id="Capa_1" xmlns="http://www.w3.org/2000/svg" xmlns:xlink="http://www.w3.org/1999/xlink" x="0px" y="0px"
	 viewBox="0 0 343.564 343.564" style="enable-background:new 0 0 343.564 343.564;" xml:space="preserve">
<g>
	<path id="rect3000-1-5" style="fill:#222222;" d="M173.155,42.782c-4.879-0.007-9.747,0.015-14.625,0.062
		c-26.215,0.454-52.593,1.091-78.563,4.719c-8.962,4.556-13.559,14.557-19.156,22.469c-10.121,16.935-14.83,36.395-20.406,55.094
		c-2.339,2.543-3.939,6.082-6.562,8.219c-2.346-0.567,0.17-5.86-0.406-8.375c1.374-7.769-7.925-12.499-14.406-9.531
		C12.471,117.973,2.53,118.644,0,126.377c-0.066,8.768,8.979,15.333,17.438,14.25c3.893,0.635,5.543,5.487,7.938,8.156
		c0.203,14.162-3.015,28.359-2.219,42.625c0.409,9.027-0.495,18.522,2.281,27.188c0.782,0.824,1.532,1.063,2.25,0.969
		c-0.157,0.517-0.281,1.047-0.281,1.594v73.5c0,3.206,2.919,6.125,6.125,6.125h24.5c3.206-0.002,6.125-2.919,6.125-6.125v-25.344
		h215.094v25.344c0,3.206,2.919,6.123,6.125,6.125h24.5c3.207-0.002,6.123-2.919,6.125-6.125v-73.5c0-0.581-0.105-1.142-0.281-1.688
		c4.407,0.024,3.294-7.081,4-10.25c0.747-19.036,0.694-38.405-2.281-57.156c0.502-4.539,4.482-8.732,7.844-11.312
		c8.095,0.399,17.037-4.245,18.281-12.906c-1.145-8.044-11.232-9.686-17.563-12c-5.729-2.37-15.454-1.261-16.031,6.375
		c-0.608,3.478,1.638,8.892,0.094,11.187c-3.558-1.488-4.975-6.11-7.375-9c-4.885-17.083-9.318-34.783-17.688-50.656
		c-5.771-9.232-11.594-19.375-20.5-25.938c-15.438-3.253-31.684-2.49-47.437-4C202.443,43.107,187.791,42.804,173.155,42.782
		L173.155,42.782z M171.936,50.688c28.868-0.001,57.739,0.092,60,0.312c1.895,0.184,4.344,0.714,5.5,1.156
		c2.291,0.877,3.167,1.803,8.312,8.656c5.116,6.813,6.709,8.542,12.656,13.844c10.174,9.069,11.234,10.554,14.156,19.875
		c0.926,2.954,3.675,11.618,6.125,19.281c2.45,7.664,4.403,14.366,4.344,14.875l-0.094,0.938l-24.719,0.219
		c-47.671,0.428-102.341,0.526-134.438,0.281c-17.821-0.136-39.294-0.253-47.719-0.281c-13.504-0.045-15.343-0.133-15.531-0.625
		c-0.118-0.307,1.597-6.226,3.812-13.156c2.216-6.93,4.981-15.64,6.156-19.375c3.461-11.002,4.644-12.894,11.938-19.406
		c7.516-6.71,10.625-9.975,14.969-15.688c2.396-3.151,4.962-6.42,5.719-7.25c1.763-1.933,4.319-2.875,8.812-3.312
		C114.197,50.812,143.068,50.689,171.936,50.688z M50.998,142.532c15.344,3.215,29.338,12.88,43.375,19.812
		c7.961,3.005,18.593,11.184,12.344,20.562c-10.542,7.448-25.322,2.498-37.375,2.188c-9.584-2.743-24.657-1.816-29.281-12.375
		C39.46,162.748,37.162,144.121,50.998,142.532z M290.686,143.095c15.59-0.561,18.573,25.416,8.75,33.688
		c-15.511,10.002-35.763,9.017-53.625,9.156c-8.583,1.35-16.944-9.123-8.219-15.25C253.098,158.353,271.535,148.384,290.686,143.095
		L290.686,143.095z"/>
</g>
<g>
</g>
<g>
</g>
<g>
</g>
<g>
</g>
<g>
</g>
<g>
</g>
<g>
</g>
<g>
</g>
<g>
</g>
<g>
</g>
<g>
</g>
<g>
</g>
<g>
</g>
<g>
</g>
<g>
</g>
</svg>
